# xmcd
#
# Track frame offsets:
#       150
#       17700
#       31110
#       49254
#       63483
#       85944
#       98016
#       116298
#       138861
#       170106
#
# Disc length: 2537 seconds
#
# Revision: 0
# Processed by: cddbd v1.5.2PL0 Copyright (c) Steve Scherf et al.
# Submitted via: WaveLab 6.11
#
DISCID=7a09e70a
DTITLE=Motörhead - Live in Moscow 2009
DYEAR=2010
DGENRE=
TTITLE0=Iron Fist
TTITLE1=Stay Clean
TTITLE2=Be my Baby
TTITLE3=Rock out
TTITLE4=Metropolis
TTITLE5=Over the Top
TTITLE6=One Night Stand
TTITLE7=I Got Mine
TTITLE8=The 1000 Names of God
TTITLE9=Cradle to the Grave
EXTD=
EXTT0=
EXTT1=
EXTT2=
EXTT3=
EXTT4=
EXTT5=
EXTT6=
EXTT7=
EXTT8=
EXTT9=
PLAYORDER=
